<?xml version="1.0" encoding="UTF-8"?>
<svg version="1.1" xmlns="http://www.w3.org/2000/svg" width="500" height="500">
<path d="M0 0 C0.33 0 0.66 0 1 0 C1 33.33 1 66.66 1 101 C-4.8873381 102.17746762 -5.69083718 101.47976773 -10.5625 98.375 C-12.23505859 97.33472656 -12.23505859 97.33472656 -13.94140625 96.2734375 C-17.89601751 93.33399464 -20.43396 90.69811999 -22 86 C-22.10850315 84.08443851 -22.15886158 82.16537241 -22.17700195 80.24682617 C-22.18983719 79.0651738 -22.20267242 77.88352142 -22.21589661 76.6660614 C-22.22328354 75.38794083 -22.23067047 74.10982025 -22.23828125 72.79296875 C-22.246353 71.47968094 -22.25442474 70.16639313 -22.26274109 68.81330872 C-22.2777545 66.03170908 -22.28759893 63.25013486 -22.29516602 60.46850586 C-22.30622345 56.91420015 -22.34062072 53.3605217 -22.38033772 49.80643749 C-22.4128466 46.40614011 -22.41728603 43.00590951 -22.42578125 39.60546875 C-22.45204338 37.69739693 -22.45204338 37.69739693 -22.47883606 35.7507782 C-22.45778981 27.18205848 -21.53394153 23.72336553 -15.66796875 17.54296875 C-14.84941406 16.76566406 -14.03085938 15.98835937 -13.1875 15.1875 C-8.64664107 10.75411702 -4.78389441 6.07990717 -1 1 C-0.67 0.67 -0.34 0.34 0 0 Z " fill="#FDFDFD" transform="translate(244,193)"/>
<path d="M0 0 C4.73570596 1.18392649 5.36055077 2.28438923 8.25 6.0625 C11.71926462 10.47219338 15.31307228 14.47428307 19.37109375 18.34375 C22.55700777 21.58314459 23.25800417 23.72661468 23.35058594 28.13891602 C23.37691101 29.18753311 23.40323608 30.23615021 23.43035889 31.31654358 C23.45709686 33.0180381 23.45709686 33.0180381 23.484375 34.75390625 C23.5084845 35.9245311 23.53259399 37.09515594 23.55743408 38.30125427 C23.60578255 40.78351047 23.64916281 43.26586761 23.68798828 45.74829102 C23.74936459 49.52341714 23.83255715 53.29761607 23.91796875 57.07226562 C23.96226523 59.48695518 24.00527454 61.90166875 24.046875 64.31640625 C24.07279724 65.43656631 24.09871948 66.55672638 24.12542725 67.71083069 C24.22187846 75.23965502 24.18246203 82.99881962 20.5 89.75 C16.72280778 93.149473 12.44681575 95.56992921 8 98 C7.319375 98.38800781 6.63875 98.77601563 5.9375 99.17578125 C4 100 4 100 0 100 C0 67 0 34 0 0 Z " fill="#FDFDFD" transform="translate(255,195)"/>
<path d="M0 0 C3.96287721 0.38104589 5.4323945 1.57539752 8.25 4.3125 C9.49956796 6.81163591 9.39042304 8.52890175 9.41113281 11.32543945 C9.42074036 12.37024979 9.4303479 13.41506012 9.44024658 14.49153137 C9.44449646 15.62483383 9.44874634 16.75813629 9.453125 17.92578125 C9.45882507 19.08748337 9.46452515 20.24918549 9.47039795 21.4460907 C9.47985796 23.90830573 9.48638589 26.37053348 9.49023438 28.83276367 C9.4999331 32.59902073 9.53094508 36.36473065 9.5625 40.13085938 C9.56903055 42.52083009 9.57428082 44.91080471 9.578125 47.30078125 C9.5904718 48.42801102 9.6028186 49.55524078 9.61553955 50.71662903 C9.61253845 51.77089584 9.60953735 52.82516266 9.60644531 53.91137695 C9.61009094 54.83578079 9.61373657 55.76018463 9.61749268 56.71260071 C9.16904863 59.88520644 8.12759443 61.73334537 6.25 64.3125 C3.01372698 66.47001534 2.41421162 66.5661352 -1.25 66.1875 C-2.0234375 66.12304688 -2.796875 66.05859375 -3.59375 65.9921875 C-6.49696939 65.07704226 -7.18442786 63.89631551 -8.75 61.3125 C-9.14440918 58.77711487 -9.14440918 58.77711487 -9.16992188 55.88891602 C-9.18583374 54.80421524 -9.20174561 53.71951447 -9.21813965 52.60194397 C-9.21834106 51.43521652 -9.21854248 50.26848907 -9.21875 49.06640625 C-9.22636353 47.86314194 -9.23397705 46.65987762 -9.24182129 45.42015076 C-9.25262579 42.87574336 -9.255474 40.3312916 -9.25097656 37.78686523 C-9.25000448 33.89296548 -9.29162193 30.00103698 -9.3359375 26.10742188 C-9.34114456 23.63542078 -9.34383269 21.16341283 -9.34375 18.69140625 C-9.36014526 17.52670303 -9.37654053 16.36199982 -9.39343262 15.16200256 C-9.31654171 6.17304787 -9.31654171 6.17304787 -6.27539062 3.10131836 C-5.44201172 2.5110083 -4.60863281 1.92069824 -3.75 1.3125 C-2.75 0.3125 -2.75 0.3125 0 0 Z " fill="#FDFDFD" transform="translate(293.75,211.6875)"/>
<path d="M0 0 C3.06113706 2.11101084 4.77273615 3.77479035 5.46463013 7.50488281 C5.64675528 10.72177054 5.66638708 13.9031002 5.62890625 17.125 C5.63131821 18.30465332 5.63373016 19.48430664 5.63621521 20.69970703 C5.63523673 23.19111496 5.62184309 25.68254463 5.59692383 28.17382812 C5.5626221 31.98642874 5.57626582 35.79671104 5.59570312 39.609375 C5.58880457 42.03125986 5.5791321 44.45313875 5.56640625 46.875 C5.57136612 48.01469238 5.57632599 49.15438477 5.58143616 50.32861328 C5.46399071 58.22393477 5.46399071 58.22393477 3.08959961 62.1953125 C-0.34660171 65.16299565 -2.50098882 65.26994067 -7 65 C-9.25 64.375 -9.25 64.375 -11 63 C-13.53601933 57.43631309 -13.30612303 51.89636415 -13.30078125 45.90625 C-13.30506638 44.84136353 -13.3093515 43.77647705 -13.31376648 42.67932129 C-13.31949557 40.43351959 -13.32002055 38.18769933 -13.31567383 35.94189453 C-13.31251081 32.51172205 -13.33600219 29.08240992 -13.36132812 25.65234375 C-13.36360099 23.46614692 -13.36430467 21.27994777 -13.36328125 19.09375 C-13.372491 18.07172485 -13.38170074 17.04969971 -13.39118958 15.9967041 C-13.35614682 10.58907114 -13.10742886 6.64037732 -10 2 C-6.4846272 -0.86780412 -4.27825413 -1.71130165 0 0 Z " fill="#FDFDFD" transform="translate(210,213)"/>
</svg>
